<svg width="128" height="60" viewBox="0 0 128 60" fill="none" xmlns="http://www.w3.org/2000/svg">
<g clip-path="url(#clip0_15_200)">
<path d="M0.083441 46.0864C0.138295 45.8636 0.246113 45.7035 0.408785 45.6064C0.569565 45.5111 0.771959 45.4502 1.01407 45.4235C2.04685 45.332 3.13448 45.2939 4.27508 45.3092C5.41378 45.3206 6.50141 45.3701 7.53608 45.4616C7.77819 45.4825 7.97491 45.5492 8.12624 45.6597C8.28134 45.7664 8.38348 45.955 8.42888 46.2236C8.45347 46.4427 8.46671 46.6084 8.46671 46.7189C8.46671 46.8256 8.45347 46.9895 8.42888 47.2066C8.39294 47.6391 8.07705 47.8696 7.48311 47.9001C6.90809 47.9363 6.3028 47.9611 5.66724 47.9763C5.03169 47.9877 4.39803 47.9839 3.76815 47.9687C3.7776 48.2392 3.78517 48.5211 3.79084 48.8145C3.79463 49.1098 3.80598 49.407 3.82111 49.7061C4.45099 49.6966 5.08087 49.7061 5.71264 49.7366C6.34252 49.7633 6.9497 49.8033 7.53608 49.8585C7.77819 49.8852 7.97491 49.9538 8.12624 50.0643C8.28134 50.171 8.38348 50.3576 8.42888 50.6206C8.45347 50.8454 8.46671 51.013 8.46671 51.1235C8.46671 51.2302 8.45347 51.394 8.42888 51.6112C8.39294 52.0379 8.07705 52.2704 7.48311 52.3046C6.92322 52.3408 6.33306 52.3637 5.71264 52.3732C5.09222 52.3847 4.4718 52.3847 3.85137 52.3732V54.5222C5.14707 54.4974 6.43142 54.5488 7.70253 54.6746C7.94465 54.7012 8.14326 54.7698 8.30026 54.8803C8.45536 54.987 8.5575 55.1756 8.6029 55.4442C8.62182 55.6633 8.63317 55.8291 8.63317 55.9395C8.63317 56.0462 8.62182 56.2101 8.6029 56.4272C8.56696 56.854 8.25108 57.0845 7.65714 57.1207C6.75866 57.1664 5.83748 57.1836 4.8955 57.174C3.9573 57.1626 3.07584 57.1512 2.25492 57.1359C1.92201 57.1359 1.64206 57.0502 1.41508 56.8768C1.19188 56.7054 1.0765 56.4692 1.06704 56.1682C1.0311 55.6709 1.00083 55.0708 0.976244 54.3698C0.955437 53.6649 0.938413 52.9333 0.923281 52.1751C0.911932 51.4188 0.904366 50.6644 0.900583 49.9119C0.894908 49.1613 0.893017 48.485 0.893017 47.8848C0.67549 47.8658 0.492012 47.8125 0.340689 47.7248C0.19315 47.6334 0.102356 47.4924 0.0683088 47.2981C0.022912 47.0447 0.000213623 46.8447 0.000213623 46.6961C0.000213623 46.5437 0.0266948 46.3417 0.083441 46.0864Z" fill="white"/>
<path d="M18.1775 50.5367C18.1775 50.9177 18.1775 51.3502 18.1775 51.8322C18.1775 52.3104 18.1718 52.7961 18.1624 53.2877C18.151 53.7754 18.1397 54.2535 18.1245 54.7203C18.1132 55.1889 18.098 55.6119 18.0791 55.9929C18.0526 56.2482 18.0072 56.4634 17.9429 56.6406C17.8824 56.814 17.7424 56.9283 17.5268 56.9835C17.0123 57.0845 16.5129 57.094 16.0287 57.014C15.8112 56.9588 15.6391 56.854 15.5142 56.7016C15.3875 56.5454 15.3251 56.3434 15.3251 56.0996C15.3251 55.7757 15.3213 55.4061 15.3175 54.9946C15.3118 54.5793 15.3043 54.1602 15.2948 53.7373C15.2891 53.3162 15.2816 52.899 15.2721 52.4875C15.2607 52.076 15.2513 51.7083 15.2418 51.3826C15.2153 51.074 15.1397 50.832 15.0148 50.6586C14.8881 50.4872 14.7273 50.3653 14.5306 50.2929C14.3377 50.2224 14.1239 50.1919 13.8875 50.2014C13.6548 50.2071 13.4222 50.2319 13.1914 50.2776C13.1649 50.2891 13.1422 50.2929 13.1233 50.2929C13.1328 50.8015 13.1422 51.3292 13.1536 51.8779C13.1687 52.4266 13.1782 52.9562 13.1838 53.4629C13.1876 53.9716 13.1914 54.4517 13.1914 54.9032C13.1914 55.3566 13.1914 55.7414 13.1914 56.0615C13.1914 56.3167 13.1536 56.532 13.0779 56.7092C13.0023 56.8826 12.8547 56.9969 12.6391 57.0521C12.1246 57.1531 11.6252 57.1664 11.141 57.0902C10.9235 57.0292 10.7589 56.9226 10.6492 56.7702C10.5433 56.6139 10.4714 56.412 10.4373 56.1681C10.3711 55.6614 10.3201 55.067 10.286 54.385C10.2501 53.7049 10.2255 53.0038 10.2104 52.2818C10.199 51.5559 10.199 50.8492 10.2104 50.1633C10.2255 49.4775 10.2425 48.8736 10.2633 48.3497C10.2879 48.1115 10.3503 47.9134 10.4525 47.7553C10.5584 47.5991 10.7419 47.4924 11.0048 47.4352C11.211 47.4009 11.4209 47.38 11.6328 47.3743C11.8446 47.3705 12.0584 47.3724 12.2759 47.3819C12.5786 47.4181 12.7847 47.58 12.8963 47.8696C13.1176 47.8086 13.3446 47.7591 13.5773 47.7172C13.8137 47.6772 14.0426 47.6486 14.2658 47.6334C14.4871 47.6181 14.6933 47.6086 14.8862 47.6029C15.0773 47.5934 15.2362 47.5953 15.3629 47.6105C15.7866 47.641 16.1725 47.7172 16.5205 47.8391C16.8685 47.961 17.1655 48.1363 17.4133 48.3649C17.6592 48.5897 17.8484 48.8812 17.9808 49.2413C18.1113 49.5975 18.1775 50.03 18.1775 50.5367Z" fill="white"/>
<path d="M19.2631 48.7155C19.318 48.4869 19.4447 48.323 19.6414 48.2202C19.8381 48.1135 20.0765 48.0487 20.3602 48.022C20.485 48.0125 20.6061 48.0049 20.7234 47.9992C20.8387 47.9954 20.9466 47.9839 21.0487 47.9687V46.5665C21.0487 46.3132 21.0865 46.0998 21.1622 45.9264C21.2379 45.755 21.3835 45.6407 21.601 45.5835C22.1155 45.4768 22.6149 45.4654 23.0991 45.5454C23.3148 45.6026 23.4774 45.7093 23.5834 45.8655C23.6931 46.0236 23.7668 46.2236 23.8028 46.4675C23.8274 46.6504 23.8444 46.8599 23.8557 47.0923C23.8652 47.321 23.8822 47.6086 23.9087 47.9534C24.1149 47.9649 24.3419 47.9801 24.5897 47.9992C24.8356 48.0144 25.1231 48.0354 25.4522 48.0601C25.7397 48.0811 25.9743 48.1516 26.1558 48.2735C26.3412 48.3954 26.4585 48.6012 26.5039 48.8907C26.5379 49.1098 26.5531 49.2794 26.5493 49.4013C26.5436 49.5232 26.5285 49.6947 26.5039 49.9119C26.4679 50.3748 26.0953 50.6244 25.3841 50.6587C24.8337 50.6949 24.3702 50.712 23.9919 50.712C24.0014 51.0778 24.009 51.4798 24.0146 51.916C24.0241 52.3485 24.0392 52.8228 24.06 53.341C24.0752 53.6573 24.1168 53.9011 24.1887 54.0726C24.2643 54.2459 24.3646 54.3679 24.4913 54.4384C24.6161 54.505 24.7731 54.5355 24.9604 54.5298C25.1514 54.526 25.3633 54.4993 25.596 54.4536C25.7662 54.4193 25.9232 54.4079 26.0651 54.4231C26.2107 54.4345 26.3526 54.5717 26.4888 54.8346C26.5342 54.9261 26.5833 55.0747 26.6401 55.2766C26.7006 55.4804 26.7403 55.6957 26.7611 55.9243C26.7857 56.1796 26.7271 56.3739 26.5871 56.5111C26.4509 56.6444 26.3374 56.7245 26.2466 56.7549C25.787 56.9188 25.3576 57.0255 24.9604 57.075C24.567 57.1302 24.2265 57.1455 23.939 57.1207C23.5153 57.0845 23.1313 57.0102 22.7889 56.8921C22.4447 56.7702 22.1496 56.5987 21.9037 56.3739C21.6559 56.1453 21.4611 55.8538 21.3211 55.4976C21.1849 55.1375 21.1168 54.7032 21.1168 54.1945L21.0714 50.6739C20.9655 50.6739 20.8539 50.672 20.7385 50.6663C20.6269 50.6625 20.5077 50.6549 20.3829 50.6434C20.084 50.6187 19.8343 50.5653 19.6338 50.4834C19.4314 50.4034 19.3028 50.2395 19.248 49.9957C19.1874 49.7328 19.1591 49.5213 19.1647 49.3632C19.1685 49.2013 19.2026 48.986 19.2631 48.7155Z" fill="white"/>
<path d="M36.0721 54.9412C36.0721 55.2156 36.1043 55.4118 36.1705 55.528C36.2405 55.6461 36.3672 55.7319 36.5488 55.7871C36.6093 55.8138 36.6717 55.8481 36.7379 55.8938C36.8079 55.9395 36.8382 56.0729 36.8287 56.29C36.8022 56.5187 36.7625 56.7054 36.7077 56.8463C36.6812 56.9035 36.6358 56.9664 36.5715 57.0368C36.511 57.1016 36.3672 57.1473 36.1402 57.174C35.6446 57.2293 35.1604 57.2045 34.6875 57.0978C34.2184 56.9968 33.8515 56.7968 33.5904 56.4958C33.3729 56.6387 33.1157 56.7682 32.8187 56.8844C32.5198 56.9968 32.1869 57.0521 31.82 57.0521C31.0823 57.0521 30.4656 56.9492 29.9663 56.7396C29.4707 56.532 29.0697 56.2577 28.7632 55.9167C28.4606 55.5775 28.2431 55.1984 28.1126 54.7812C27.9801 54.3659 27.9158 53.9487 27.9158 53.5315C27.9158 53.12 27.9877 52.7161 28.1353 52.3199C28.2866 51.9198 28.5136 51.5635 28.8162 51.253C29.1188 50.9387 29.5047 50.6872 29.9738 50.4986C30.4467 50.3062 31.0047 50.209 31.6459 50.209C32.0129 50.209 32.3609 50.2509 32.6901 50.3309C33.0173 50.4129 33.3294 50.55 33.6283 50.7424C33.5677 50.4071 33.388 50.1538 33.0911 49.9804C32.7922 49.809 32.4517 49.6946 32.0696 49.6375C31.6857 49.5765 31.2979 49.5537 30.9045 49.5689C30.5148 49.5803 30.2008 49.5956 29.9587 49.6146C29.8925 49.6299 29.8111 49.6375 29.7166 49.6375C29.6258 49.6375 29.5369 49.6223 29.4518 49.5918C29.3647 49.5613 29.2872 49.5137 29.2172 49.447C29.151 49.3765 29.1132 49.2717 29.1037 49.1346C29.0772 48.9364 29.0621 48.7573 29.0583 48.5935C29.0526 48.4316 29.0602 48.2544 29.081 48.0601C29.0961 47.9229 29.1302 47.8143 29.1869 47.7324C29.2418 47.6524 29.3099 47.5857 29.3912 47.5343C29.4707 47.479 29.552 47.4428 29.6333 47.4276C29.7128 47.4085 29.7809 47.3933 29.8376 47.3819C30.1705 47.3266 30.4997 47.2828 30.8288 47.2523C31.156 47.2218 31.4681 47.2066 31.767 47.2066C32.3515 47.2066 32.9038 47.2638 33.424 47.3743C33.9479 47.4867 34.4095 47.6848 34.8086 47.9686C35.2115 48.2487 35.5274 48.6316 35.7543 49.1193C35.9851 49.6032 36.1024 50.2147 36.1024 50.9558L36.0721 54.9412ZM30.8364 53.5696C30.8364 53.6972 30.8534 53.8268 30.8893 53.9582C30.9234 54.0916 30.9877 54.2154 31.0785 54.3316C31.1693 54.4497 31.2865 54.5431 31.4341 54.6136C31.5854 54.6803 31.7764 54.7126 32.0091 54.7126C32.4877 54.7126 32.8262 54.5983 33.023 54.3697C33.2197 54.1373 33.318 53.8706 33.318 53.5696C33.318 53.2343 33.1989 52.9809 32.9624 52.8076C32.7241 52.6361 32.4063 52.5485 32.0091 52.5485C31.7764 52.5485 31.5816 52.5847 31.4265 52.6551C31.2752 52.7218 31.156 52.8056 31.0709 52.9066C30.9839 53.0038 30.9234 53.1124 30.8893 53.2343C30.8534 53.3524 30.8364 53.4629 30.8364 53.5696Z" fill="white"/>
<path d="M45.065 51.8703C44.8324 51.9427 44.5997 51.9827 44.369 51.9922C44.142 52.0036 43.8923 52.0074 43.6199 52.0074C43.3664 52.0074 43.1905 51.9503 43.0903 51.8322C42.9938 51.7102 42.9409 51.5617 42.9314 51.3826C42.9049 51.0987 42.833 50.8701 42.712 50.6967C42.5947 50.5196 42.4472 50.3957 42.2656 50.3233C42.0878 50.2471 41.8835 50.2071 41.6527 50.2014C41.4257 50.1919 41.2025 50.2129 40.9869 50.2624C40.9964 50.771 41.0058 51.2988 41.0172 51.8474C41.0323 52.3961 41.0418 52.9295 41.0474 53.4477C41.0512 53.9659 41.055 54.4517 41.055 54.9032C41.055 55.3566 41.055 55.7414 41.055 56.0615C41.055 56.3167 41.0172 56.532 40.9415 56.7092C40.8658 56.8826 40.7183 56.9969 40.5027 57.0521C39.9882 57.1531 39.4888 57.1664 39.0046 57.0902C38.787 57.0292 38.6225 56.9226 38.5128 56.7702C38.4069 56.6139 38.335 56.412 38.3009 56.1681C38.2347 55.6614 38.1837 55.067 38.1496 54.385C38.1137 53.7049 38.0891 53.0038 38.0739 52.2818C38.0626 51.5559 38.0626 50.8492 38.0739 50.1633C38.0891 49.4775 38.1061 48.8736 38.1269 48.3497C38.1515 48.1115 38.2139 47.9134 38.3161 47.7553C38.422 47.5991 38.6055 47.4924 38.8684 47.4352C39.0746 47.4009 39.2845 47.38 39.4964 47.3743C39.7082 47.3705 39.922 47.3724 40.1395 47.3819C40.427 47.4181 40.6275 47.5629 40.7448 47.8163C40.951 47.7705 41.1647 47.7324 41.3879 47.702C41.6149 47.6715 41.8305 47.6486 42.0386 47.6334C42.2448 47.6181 42.4358 47.6086 42.6136 47.6029C42.7895 47.5934 42.9352 47.5953 43.0525 47.6105C43.4762 47.641 43.8545 47.7172 44.1874 47.8391C44.5203 47.961 44.7964 48.1363 45.0196 48.3649C45.2466 48.5897 45.415 48.8812 45.5266 49.2413C45.642 49.5975 45.7006 50.03 45.7006 50.5367V50.7806C45.7006 51.3711 45.4887 51.7331 45.065 51.8703Z" fill="white"/>
<path d="M53.2978 49.0431C53.1503 48.8507 52.9611 48.6964 52.7303 48.5783C52.5033 48.4621 52.2575 48.403 51.9964 48.403C51.603 48.403 51.2871 48.523 51.0507 48.7612C50.818 49.0012 50.6421 49.2851 50.521 49.6146C50.4 49.9404 50.3205 50.2833 50.2865 50.6434C50.2562 50.9996 50.2411 51.2987 50.2411 51.5426C50.2411 51.8436 50.26 52.1579 50.3016 52.4875C50.3413 52.819 50.4246 53.1238 50.5513 53.4019C50.6761 53.6763 50.8539 53.903 51.0809 54.0802C51.3117 54.2592 51.6181 54.3469 51.9964 54.3469C52.2121 54.3469 52.3936 54.3354 52.5412 54.3088C52.6925 54.2783 52.8211 54.2364 52.9271 54.1792C53.0368 54.1183 53.1332 54.0554 53.2146 53.9887C53.294 53.9182 53.3753 53.8363 53.4567 53.7449C53.6269 53.5467 53.7896 53.4058 53.9409 53.3181C54.096 53.2324 54.2965 53.2076 54.5386 53.2419C55.0077 53.3086 55.3804 53.4686 55.6584 53.722C55.8551 53.9106 55.963 54.1221 55.9838 54.3545C56.0084 54.5831 55.9459 54.8117 55.7946 55.0403C55.3955 55.7109 54.8829 56.2367 54.2587 56.6177C53.6326 56.9987 52.9119 57.1893 52.0948 57.1893C51.272 57.1893 50.5589 57.0502 49.9536 56.7701C49.3521 56.4863 48.8565 56.09 48.463 55.5814C48.0734 55.0746 47.784 54.4669 47.5929 53.7601C47.4057 53.0552 47.313 52.2741 47.313 51.4207C47.313 50.6129 47.4132 49.8471 47.6156 49.1193C47.8161 48.3878 48.1169 47.7553 48.516 47.2218C48.9189 46.6846 49.4183 46.2579 50.0141 45.9416C50.608 45.6216 51.3022 45.4615 52.0948 45.4615C52.4163 45.4615 52.7379 45.5073 53.0557 45.5987C53.3772 45.6902 53.6837 45.8235 53.9712 45.995C54.2587 46.1683 54.5178 46.3817 54.7505 46.6351C54.9869 46.8904 55.1818 47.1799 55.3331 47.5038C55.3974 47.641 55.4314 47.7838 55.4314 47.9305C55.4314 48.0734 55.386 48.2125 55.2952 48.3497C55.2139 48.4773 55.0758 48.6221 54.8791 48.784C54.6862 48.9479 54.4876 49.0736 54.2814 49.165C54.0847 49.2622 53.8993 49.306 53.7291 49.2946C53.5569 49.2793 53.4132 49.1955 53.2978 49.0431Z" fill="#BC6FF1"/>
<path d="M61.779 47.4505C62.5697 47.4505 63.2563 47.5915 63.837 47.8696C64.4158 48.144 64.8906 48.5135 65.2595 48.9746C65.6321 49.4375 65.9101 49.9633 66.0917 50.552C66.2771 51.1426 66.3717 51.7541 66.3717 52.3885C66.3717 53.04 66.2771 53.6573 66.0917 54.2402C65.9101 54.8194 65.6302 55.3356 65.2519 55.7871C64.8736 56.2406 64.3931 56.5987 63.8143 56.8616C63.2393 57.1245 62.5602 57.2579 61.779 57.2579C60.9865 57.2579 60.315 57.115 59.7665 56.8311C59.216 56.5416 58.762 56.1644 58.4045 55.6957C58.0508 55.2232 57.7936 54.7013 57.6328 54.1259C57.4701 53.5468 57.3907 52.9676 57.3907 52.3885C57.3907 51.7998 57.4626 51.2111 57.6101 50.6206C57.7614 50.0319 58.0054 49.5042 58.344 49.0355C58.6864 48.5688 59.1385 48.1878 59.6984 47.8925C60.2582 47.5991 60.9505 47.4505 61.779 47.4505ZM60.2809 52.4113C60.2809 52.6514 60.3055 52.8952 60.3566 53.1429C60.4115 53.3925 60.4966 53.6154 60.6139 53.8135C60.7349 54.0078 60.89 54.164 61.083 54.2859C61.274 54.4079 61.5067 54.4688 61.779 54.4688C62.1914 54.4688 62.5451 54.3088 62.8383 53.9887C63.1296 53.6649 63.2771 53.1391 63.2771 52.4113C63.2771 51.7065 63.158 51.1616 62.9215 50.7806C62.6889 50.3996 62.3087 50.2091 61.779 50.2091C61.5161 50.2091 61.291 50.27 61.1057 50.392C60.9241 50.5139 60.769 50.6777 60.6441 50.8797C60.5174 51.0778 60.4247 51.3121 60.3642 51.5807C60.3074 51.8455 60.2809 52.1218 60.2809 52.4113Z" fill="#BC6FF1"/>
<path d="M76.0016 50.5367C76.0016 50.9177 76.0016 51.3502 76.0016 51.8322C76.0016 52.3104 75.9959 52.7961 75.9865 53.2877C75.9751 53.7754 75.9638 54.2535 75.9487 54.7203C75.9373 55.1889 75.9222 55.6119 75.9033 55.9929C75.8768 56.2482 75.8314 56.4634 75.7671 56.6406C75.7065 56.814 75.5666 56.9283 75.3509 56.9835C74.8364 57.0845 74.3371 57.094 73.8528 57.014C73.6353 56.9588 73.4632 56.854 73.3383 56.7016C73.2116 56.5454 73.1492 56.3434 73.1492 56.0996C73.1492 55.7757 73.1454 55.4061 73.1416 54.9946C73.1359 54.5793 73.1284 54.1602 73.1189 53.7373C73.1132 53.3162 73.1057 52.899 73.0962 52.4875C73.0849 52.076 73.0754 51.7083 73.066 51.3826C73.0395 51.074 72.9638 50.832 72.839 50.6586C72.7122 50.4872 72.5515 50.3653 72.3547 50.2929C72.1618 50.2224 71.9481 50.1919 71.7116 50.2014C71.479 50.2071 71.2463 50.2319 71.0155 50.2776C70.9891 50.2891 70.9664 50.2929 70.9474 50.2929C70.9569 50.8015 70.9664 51.3292 70.9777 51.8779C70.9928 52.4266 71.0023 52.9562 71.008 53.4629C71.0118 53.9716 71.0155 54.4517 71.0155 54.9032C71.0155 55.3566 71.0155 55.7414 71.0155 56.0615C71.0155 56.3167 70.9777 56.532 70.902 56.7092C70.8264 56.8826 70.6788 56.9969 70.4632 57.0521C69.9487 57.1531 69.4493 57.1664 68.9651 57.0902C68.7476 57.0292 68.583 56.9226 68.4733 56.7702C68.3674 56.6139 68.2955 56.412 68.2615 56.1681C68.1953 55.6614 68.1442 55.067 68.1101 54.385C68.0742 53.7049 68.0496 53.0038 68.0345 52.2818C68.0231 51.5559 68.0231 50.8492 68.0345 50.1633C68.0496 49.4775 68.0666 48.8736 68.0874 48.3497C68.112 48.1115 68.1745 47.9134 68.2766 47.7553C68.3825 47.5991 68.566 47.4924 68.8289 47.4352C69.0351 47.4009 69.2451 47.38 69.4569 47.3743C69.6688 47.3705 69.8825 47.3724 70.1 47.3819C70.4027 47.4181 70.6089 47.58 70.7205 47.8696C70.9418 47.8086 71.1688 47.7591 71.4014 47.7172C71.6379 47.6772 71.8667 47.6486 72.0899 47.6334C72.3112 47.6181 72.5174 47.6086 72.7103 47.6029C72.9014 47.5934 73.0603 47.5953 73.187 47.6105C73.5294 47.641 73.8472 47.6981 74.1403 47.7782C74.4316 47.8601 74.6927 47.9763 74.9197 48.1287C74.9991 48.0734 75.0804 48.0201 75.1618 47.9687C75.3925 47.8925 75.6422 47.8296 75.9108 47.7782C76.1775 47.7229 76.4405 47.6829 76.6977 47.6562C76.9587 47.6257 77.2046 47.6086 77.4316 47.6029C77.6624 47.5934 77.8478 47.5953 77.9839 47.6105C78.4076 47.641 78.7935 47.7172 79.1416 47.8391C79.4934 47.961 79.7941 48.1363 80.0419 48.3649C80.2878 48.5897 80.477 48.8812 80.6094 49.2413C80.7399 49.5975 80.8061 50.03 80.8061 50.5367C80.8061 50.9177 80.8061 51.3502 80.8061 51.8322C80.8061 52.3104 80.7985 52.7961 80.7834 53.2877C80.7721 53.7754 80.7626 54.2535 80.7531 54.7203C80.7418 55.1889 80.7248 55.6119 80.7002 55.9929C80.6794 56.2482 80.6359 56.4634 80.5716 56.6406C80.511 56.814 80.3711 56.9283 80.1554 56.9835C79.6352 57.0845 79.1359 57.094 78.6573 57.014C78.4341 56.9588 78.2601 56.854 78.1353 56.7016C78.0085 56.5454 77.9461 56.3434 77.9461 56.0996C77.9461 55.7757 77.9423 55.4061 77.9385 54.9946C77.9329 54.5793 77.9272 54.1602 77.9234 53.7373C77.9177 53.3162 77.9083 52.899 77.8931 52.4875C77.8818 52.076 77.8723 51.7083 77.8629 51.3826C77.8421 51.0987 77.774 50.872 77.6586 50.7044C77.5413 50.5367 77.3976 50.4129 77.2273 50.331C77.0552 50.251 76.8585 50.2071 76.6372 50.2014C76.4196 50.1919 76.2021 50.2052 75.9865 50.2395C75.9959 50.3005 76.0016 50.3519 76.0016 50.3919C76.0016 50.4338 76.0016 50.4815 76.0016 50.5367Z" fill="#BC6FF1"/>
<path d="M88.5979 51.7483C88.5979 51.5502 88.577 51.3559 88.5373 51.1616C88.4957 50.9634 88.4257 50.7863 88.3255 50.6281C88.229 50.4662 88.0985 50.3367 87.932 50.2395C87.7656 50.1385 87.5556 50.0871 87.304 50.0871C86.8444 50.0871 86.4869 50.2166 86.2297 50.4757C85.9724 50.7348 85.8438 51.1597 85.8438 51.7483C85.8438 52.3027 85.9516 52.7542 86.1691 53.1047C86.3848 53.4515 86.7631 53.6229 87.304 53.6229C87.5556 53.6229 87.7656 53.5696 87.932 53.4629C88.0985 53.3524 88.229 53.2095 88.3255 53.0362C88.4257 52.859 88.4957 52.659 88.5373 52.4342C88.577 52.2113 88.5979 51.9827 88.5979 51.7483ZM85.2536 48.2658C85.5052 47.9763 85.8078 47.7629 86.1616 47.6257C86.5191 47.4886 86.9579 47.42 87.4781 47.42C88.1533 47.42 88.7303 47.5476 89.2107 47.801C89.6949 48.0563 90.0884 48.3878 90.391 48.7993C90.6937 49.2069 90.915 49.6718 91.0568 50.1938C91.2025 50.712 91.2763 51.2301 91.2763 51.7483C91.2763 52.2665 91.2119 52.7961 91.0871 53.3334C90.9604 53.8725 90.7485 54.3602 90.4516 54.7965C90.1527 55.2289 89.7593 55.5795 89.2712 55.8481C88.787 56.1186 88.1893 56.2519 87.4781 56.2519C87.1187 56.2519 86.7839 56.1967 86.4718 56.0843C86.1634 55.9681 85.8911 55.81 85.6546 55.6118C85.6546 56.2729 85.6471 56.9111 85.6319 57.5245C85.6206 58.1437 85.6054 58.639 85.5865 59.0105C85.56 59.3096 85.4901 59.5363 85.3747 59.6887C85.2631 59.8449 85.1269 59.9364 84.9661 59.9631C84.7486 59.9973 84.5235 60.0088 84.2927 59.9935C84.0657 59.9821 83.8482 59.9669 83.642 59.9478C83.3734 59.9021 83.2051 59.7992 83.1351 59.643C83.0689 59.4849 83.0254 59.2867 83.0065 59.0486C82.9913 58.9305 82.9781 58.6485 82.9686 58.2028C82.9573 57.7608 82.9478 57.2235 82.9384 56.5949C82.9327 55.9662 82.9251 55.2689 82.9157 54.5069C82.9043 53.7449 82.893 52.9866 82.8779 52.2284C82.8665 51.4721 82.857 50.7463 82.8476 50.049C82.8362 49.3479 82.8325 48.7497 82.8325 48.2506C82.8325 48.0887 82.8589 47.9305 82.9157 47.7781C82.9762 47.6219 83.137 47.5114 83.3999 47.4505C83.4794 47.4409 83.5853 47.4314 83.7177 47.42C83.8482 47.4047 83.9825 47.3952 84.1187 47.3895C84.2587 47.3857 84.3949 47.3895 84.5273 47.4047C84.6578 47.4162 84.758 47.4257 84.8299 47.4352C84.9548 47.4562 85.0512 47.5019 85.1174 47.5724C85.1874 47.6448 85.2271 47.7477 85.2385 47.8848L85.2536 48.2658Z" fill="#BC6FF1"/>
<path d="M92.6879 53.2038C92.6879 52.4323 92.6917 51.655 92.703 50.872C92.7125 50.0852 92.7409 49.3079 92.7863 48.5402C92.8108 48.2868 92.8544 48.0734 92.9149 47.9001C92.9792 47.7286 93.1211 47.6143 93.3386 47.5572C93.8569 47.4505 94.3562 47.439 94.8367 47.5191C95.0523 47.58 95.2244 47.6905 95.3512 47.8467C95.476 47.9991 95.5403 48.1973 95.5403 48.4411C95.5403 48.7764 95.5422 49.1612 95.5479 49.5918C95.5574 50.0242 95.5649 50.4662 95.5706 50.9177C95.5744 51.3711 95.5801 51.8131 95.5857 52.2437C95.5895 52.6761 95.6046 53.0552 95.6311 53.3791C95.6406 53.6896 95.7106 53.9201 95.843 54.0726C95.9735 54.2211 96.1381 54.3145 96.3348 54.3545C96.5315 54.3964 96.7452 54.404 96.9779 54.3774C97.2143 54.3469 97.447 54.3088 97.674 54.2631C97.6986 54.2631 97.7213 54.2593 97.7421 54.2478C97.7213 53.7411 97.7042 53.2153 97.6891 52.6704C97.6778 52.1275 97.674 51.5998 97.674 51.0854C97.674 50.5672 97.674 50.0852 97.674 49.6375C97.674 49.186 97.674 48.7974 97.674 48.4716C97.674 48.2182 97.7118 48.0049 97.7875 47.8315C97.8631 47.66 98.0088 47.5457 98.2263 47.4886C98.4779 47.4276 98.7408 47.3952 99.0132 47.3895C99.2893 47.3857 99.5542 47.4048 99.8076 47.4505C100.023 47.5114 100.188 47.6219 100.299 47.7781C100.409 47.9306 100.481 48.1287 100.511 48.3725C100.581 48.8812 100.634 49.4775 100.67 50.1633C100.704 50.8491 100.727 51.5502 100.738 52.2665C100.748 52.9828 100.748 53.6877 100.738 54.3774C100.727 55.0632 100.71 55.6652 100.685 56.1834C100.664 56.4272 100.602 56.6292 100.496 56.7854C100.394 56.9378 100.211 57.0445 99.9438 57.1054C99.7357 57.1397 99.5125 57.1607 99.2704 57.1664C99.0321 57.1702 98.8051 57.1683 98.5895 57.1588C98.266 57.1226 98.0598 56.9664 97.9691 56.6863C97.7515 56.7473 97.5245 56.7968 97.2881 56.8311C97.0498 56.8616 96.8209 56.8883 96.5996 56.9073C96.3764 56.9226 96.1702 56.934 95.9792 56.9378C95.7919 56.9435 95.6349 56.9416 95.5101 56.9302C95.0353 56.8959 94.6248 56.7816 94.2768 56.5873C93.9287 56.3891 93.6356 56.1262 93.3991 55.7947C93.1665 55.4652 92.9905 55.0784 92.8695 54.6365C92.7484 54.1907 92.6879 53.7125 92.6879 53.2038Z" fill="#BC6FF1"/>
<path d="M101.958 48.7155C102.013 48.4869 102.14 48.323 102.336 48.2202C102.533 48.1135 102.771 48.0487 103.055 48.022C103.18 48.0125 103.301 48.0049 103.418 47.9992C103.534 47.9954 103.642 47.9839 103.744 47.9687V46.5665C103.744 46.3132 103.781 46.0998 103.857 45.9264C103.933 45.755 104.078 45.6407 104.296 45.5835C104.81 45.4768 105.31 45.4654 105.794 45.5454C106.01 45.6026 106.172 45.7093 106.278 45.8655C106.388 46.0236 106.462 46.2236 106.498 46.4675C106.522 46.6504 106.539 46.8599 106.551 47.0923C106.56 47.321 106.577 47.6086 106.604 47.9534C106.81 47.9649 107.037 47.9801 107.285 47.9992C107.531 48.0144 107.818 48.0354 108.147 48.0601C108.435 48.0811 108.669 48.1516 108.851 48.2735C109.036 48.3954 109.153 48.6012 109.199 48.8907C109.233 49.1098 109.248 49.2794 109.244 49.4013C109.239 49.5232 109.223 49.6947 109.199 49.9119C109.163 50.3748 108.79 50.6244 108.079 50.6587C107.529 50.6949 107.065 50.712 106.687 50.712C106.696 51.0778 106.704 51.4798 106.71 51.916C106.719 52.3485 106.734 52.8228 106.755 53.341C106.77 53.6573 106.812 53.9011 106.884 54.0726C106.959 54.2459 107.06 54.3679 107.186 54.4384C107.311 54.505 107.468 54.5355 107.655 54.5298C107.846 54.526 108.058 54.4993 108.291 54.4536C108.461 54.4193 108.618 54.4079 108.76 54.4231C108.906 54.4345 109.048 54.5717 109.184 54.8346C109.229 54.9261 109.278 55.0747 109.335 55.2766C109.396 55.4804 109.435 55.6957 109.456 55.9243C109.481 56.1796 109.422 56.3739 109.282 56.5111C109.146 56.6444 109.032 56.7245 108.942 56.7549C108.482 56.9188 108.053 57.0255 107.655 57.075C107.262 57.1302 106.921 57.1455 106.634 57.1207C106.21 57.0845 105.826 57.0102 105.484 56.8921C105.14 56.7702 104.845 56.5987 104.599 56.3739C104.351 56.1453 104.156 55.8538 104.016 55.4976C103.88 55.1375 103.812 54.7032 103.812 54.1945L103.766 50.6739C103.66 50.6739 103.549 50.672 103.433 50.6663C103.322 50.6625 103.203 50.6549 103.078 50.6434C102.779 50.6187 102.529 50.5653 102.329 50.4834C102.126 50.4034 101.998 50.2395 101.943 49.9957C101.882 49.7328 101.854 49.5213 101.86 49.3632C101.863 49.2013 101.898 48.986 101.958 48.7155Z" fill="#BC6FF1"/>
<path d="M118.714 52.5485C118.724 52.9047 118.663 53.1791 118.533 53.3715C118.4 53.5601 118.156 53.6763 117.799 53.722C117.5 53.7582 117.21 53.7906 116.929 53.8211C116.65 53.8515 116.353 53.8744 116.036 53.8896C115.722 53.9049 115.379 53.9182 115.007 53.9278C114.632 53.9335 114.205 53.9354 113.72 53.9354C113.8 54.1907 113.963 54.3774 114.205 54.4993C114.447 54.6174 114.721 54.6936 115.029 54.7279C115.342 54.7641 115.674 54.7717 116.028 54.7507C116.38 54.726 116.713 54.686 117.027 54.6288C117.072 54.6136 117.125 54.606 117.186 54.606C117.25 54.606 117.316 54.6193 117.382 54.6441C117.452 54.665 117.519 54.7126 117.579 54.7888C117.644 54.8651 117.7 54.9717 117.746 55.1089C117.791 55.2518 117.831 55.4118 117.867 55.589C117.901 55.7681 117.92 55.9148 117.92 56.031C117.92 56.2596 117.806 56.4425 117.579 56.5796C117.356 56.713 117.095 56.8197 116.792 56.8997C116.49 56.9759 116.191 57.0273 115.9 57.0521C115.606 57.0769 115.402 57.0902 115.287 57.0902C114.655 57.0902 114.05 57.0197 113.471 56.8768C112.89 56.7301 112.377 56.4729 111.935 56.1072C111.496 55.7414 111.148 55.2518 110.891 54.6364C110.633 54.0173 110.509 53.2267 110.52 52.2665C110.535 51.4854 110.66 50.7996 110.898 50.209C111.14 49.6204 111.447 49.1327 111.821 48.7459C112.194 48.3554 112.612 48.0639 113.077 47.8696C113.541 47.6715 114.002 47.5724 114.462 47.5724C115.082 47.5724 115.65 47.66 116.164 47.8315C116.683 48.0048 117.127 48.2868 117.496 48.6773C117.869 49.0641 118.162 49.5746 118.374 50.209C118.585 50.8453 118.699 51.6245 118.714 52.5485ZM114.855 50.0719C114.42 50.0833 114.069 50.23 113.796 50.5138C113.528 50.7939 113.406 51.1959 113.433 51.7179C113.588 51.7293 113.896 51.7312 114.356 51.7255C114.814 51.7217 115.394 51.7064 116.096 51.6798C116.106 51.4626 116.085 51.2568 116.036 51.0625C115.985 50.8644 115.903 50.6948 115.794 50.5519C115.688 50.4052 115.553 50.289 115.393 50.2014C115.23 50.1157 115.052 50.0719 114.855 50.0719Z" fill="#BC6FF1"/>
<path d="M127.364 51.8703C127.132 51.9427 126.899 51.9827 126.668 51.9922C126.441 52.0036 126.192 52.0074 125.919 52.0074C125.666 52.0074 125.49 51.9503 125.39 51.8322C125.293 51.7102 125.24 51.5617 125.231 51.3826C125.204 51.0987 125.132 50.8701 125.011 50.6967C124.894 50.5196 124.746 50.3957 124.565 50.3233C124.387 50.2471 124.183 50.2071 123.952 50.2014C123.725 50.1919 123.502 50.2129 123.286 50.2624C123.296 50.771 123.305 51.2988 123.316 51.8474C123.332 52.3961 123.341 52.9295 123.347 53.4477C123.351 53.9659 123.354 54.4517 123.354 54.9032C123.354 55.3566 123.354 55.7414 123.354 56.0615C123.354 56.3167 123.316 56.532 123.241 56.7092C123.165 56.8826 123.018 56.9969 122.802 57.0521C122.287 57.1531 121.788 57.1664 121.304 57.0902C121.086 57.0292 120.922 56.9226 120.812 56.7702C120.706 56.6139 120.634 56.412 120.6 56.1681C120.534 55.6614 120.483 55.067 120.449 54.385C120.413 53.7049 120.388 53.0038 120.373 52.2818C120.362 51.5559 120.362 50.8492 120.373 50.1633C120.388 49.4775 120.405 48.8736 120.426 48.3497C120.451 48.1115 120.513 47.9134 120.615 47.7553C120.721 47.5991 120.905 47.4924 121.168 47.4352C121.374 47.4009 121.584 47.38 121.796 47.3743C122.008 47.3705 122.221 47.3724 122.439 47.3819C122.726 47.4181 122.927 47.5629 123.044 47.8163C123.25 47.7705 123.464 47.7324 123.687 47.702C123.914 47.6715 124.13 47.6486 124.338 47.6334C124.544 47.6181 124.735 47.6086 124.913 47.6029C125.089 47.5934 125.234 47.5953 125.352 47.6105C125.775 47.641 126.154 47.7172 126.487 47.8391C126.82 47.961 127.096 48.1363 127.319 48.3649C127.546 48.5897 127.714 48.8812 127.826 49.2413C127.941 49.5975 128 50.03 128 50.5367V50.7806C128 51.3711 127.788 51.7331 127.364 51.8703Z" fill="#BC6FF1"/>
<path d="M51.5731 28.4505C51.8019 28.542 52.0705 28.5286 52.3013 28.3819L69.6977 17.2753C69.9796 17.0962 70.1233 16.7609 70.0628 16.4313L67.5092 2.4747C67.4544 2.17941 67.2539 1.95651 67.0004 1.85745C66.9361 1.83268 66.8793 1.91269 66.9228 1.96794C66.9985 2.06701 67.0534 2.18512 67.0761 2.31848L69.6315 16.2751C69.692 16.6047 69.5464 16.94 69.2664 17.1191L51.87 28.2257C51.7773 28.2829 51.6809 28.3191 51.5825 28.3381C51.5239 28.3496 51.5163 28.4277 51.5731 28.4505ZM46.4224 8.78815L65.9922 0.407678C66.9172 0.0114204 67.967 0.590566 68.1429 1.59264L71.0256 18.1555L71.0067 18.1669L71.0407 18.1631L84.2531 23.9698C84.9491 24.2765 85.0929 25.2138 84.5179 25.7186L68.629 39.702C67.3806 40.8012 65.5572 40.9079 64.1896 39.963L51.1361 30.9329L51.1626 30.9157L51.121 30.9252L44.7333 12.6688C44.1942 11.1276 44.9338 9.42635 46.4224 8.78815Z" fill="white"/>
<path d="M46.0592 12.8783L51.1002 27.9495C51.191 28.2238 51.4085 28.4105 51.6582 28.4791C51.6298 28.4715 51.6014 28.4619 51.5731 28.4505C51.5163 28.4276 51.5239 28.3495 51.5825 28.3381C51.6809 28.3191 51.7773 28.2829 51.87 28.2257L69.2665 17.1191C69.5464 16.94 69.6921 16.6047 69.6315 16.2751L67.0761 2.31846C67.0534 2.1851 66.9985 2.06699 66.9228 1.96792C66.8793 1.91268 66.9342 1.83266 67.0004 1.85743C66.8094 1.78313 66.5899 1.78123 66.3819 1.87267L47.0845 10.5141C46.1898 10.9161 45.7452 11.941 46.0592 12.8783Z" fill="#892CDC"/>
<path d="M67.2539 0.426713C67.2539 0.426713 67.252 0.426713 67.2501 0.424808C67.252 0.426713 67.2539 0.426713 67.2539 0.426713ZM45.942 8.59572L65.5118 0.219058C65.9128 0.047601 66.3365 0.059031 66.7015 0.207628L66.7148 0.211438C66.7148 0.211438 66.9361 0.300977 67.0969 0.363845C66.7526 0.247635 66.363 0.251445 65.9941 0.409567L46.4243 8.78623C44.9357 9.42252 44.1961 11.1238 44.7352 12.6669L51.1191 30.9233L51.1607 30.9138L51.1342 30.9309L64.1877 39.9629C65.5534 40.9079 67.3768 40.8012 68.6271 39.7019L84.5179 25.7224C84.7222 25.5434 84.8338 25.309 84.864 25.0671L84.8735 25.7053C84.8792 25.9987 84.7657 26.2978 84.5179 26.5149L68.6271 40.4964C67.3768 41.5937 65.5534 41.7023 64.1877 40.7555L50.911 31.4167L44.2509 12.4764C43.7119 10.9333 44.4533 9.23392 45.942 8.59572ZM67.0042 1.85743C67.2558 1.9565 67.4582 2.17939 67.5111 2.47658L70.0647 16.4313C70.1252 16.7628 69.9796 17.0981 69.6996 17.2772L52.2994 28.38C52.0705 28.5267 51.8001 28.5401 51.5712 28.4486C51.5163 28.4257 51.5239 28.3476 51.5825 28.3362C51.6809 28.3172 51.7774 28.281 51.8681 28.2238L69.2665 17.121C69.5483 16.9419 69.6921 16.6066 69.6315 16.2751L67.0798 2.32037C67.0553 2.18511 67.0004 2.06699 66.9247 1.96793C66.8831 1.91268 66.938 1.83267 67.0042 1.85743ZM66.8056 30.1727L64.339 32.0549C63.3214 31.4244 61.6606 30.3804 60.2476 29.4888L73.4486 20.0796L78.762 22.4114L68.3037 30.3423L69.2438 30.8338L66.2362 33.1599L65.2924 32.6265C65.2848 32.6322 65.0408 32.4874 64.6473 32.2435L66.6089 30.7633L67.2709 31.1253L67.7476 30.7633L66.8056 30.1727ZM59.7539 29.8336L64.7892 33.0056L60.6032 36.1794L55.5093 32.8074C56.3359 32.2321 58.7155 30.5633 59.7539 29.8336ZM55.097 32.535L54.399 32.0721L58.6739 29.1554L59.3321 29.5688L55.097 32.535ZM63.0452 26.1739L63.6751 26.5645L59.8258 29.2221C59.5988 29.0792 59.3813 28.942 59.177 28.8125L63.0452 26.1739ZM63.6524 25.7586L67.3484 23.2363L67.9273 23.6268L64.3258 26.1149L63.6524 25.7586ZM67.9008 22.861L72.5521 19.6871L73.2122 19.9767L68.559 23.1906C68.5458 23.2001 68.2129 23.0267 67.9008 22.861ZM75.9001 26.2959L72.9379 28.6429C72.798 28.7553 72.8169 28.9782 72.9776 29.062L76.0533 30.6737C76.3502 30.83 76.7134 30.7804 76.9593 30.5499L79.3654 28.3133C79.4921 28.1952 79.4637 27.9857 79.3124 27.9076L76.1649 26.2711C76.0798 26.2254 75.9757 26.2349 75.9001 26.2959Z" fill="white"/>
<path d="M61.6701 21.0721L47.9432 16.578L47.2736 14.6577L63.3668 20.0796L61.6701 21.0721ZM68.5704 16.8619L49.1481 10.295C49.1481 10.295 45.959 11.3409 46.8726 13.2251L64.8762 19.0222L68.5704 16.8619Z" fill="#BC6FF1"/>
<path d="M77.9637 22.9011C77.9637 22.903 77.9637 22.903 77.9637 22.903V22.9011ZM77.6421 22.021L77.0747 22.4534C77.4208 22.6154 77.8691 22.823 77.9996 22.8744L78.5822 22.4344L77.6421 22.021ZM72.8925 20.5902L73.7437 20.9656L74.3149 20.5617L73.46 20.1864L72.8925 20.5902ZM61.1177 29.9271L62.8485 28.7002L62.1789 28.2258L60.4122 29.4832C60.6562 29.6375 60.8907 29.7842 61.1177 29.9271ZM64.3352 31.9427L66.7696 30.0852L65.7955 29.5213L63.3421 31.3254C63.7261 31.5654 64.059 31.7712 64.3352 31.9427ZM66.6183 30.8739L65.8219 31.474C65.96 31.5654 66.1132 31.6683 66.2665 31.7712L67.1006 31.1387L66.6183 30.8739ZM65.281 32.518L66.1095 31.8893C65.9789 31.8017 65.8314 31.7026 65.665 31.5921L64.81 32.236C65.0994 32.4132 65.2261 32.4875 65.281 32.518ZM66.9852 32.4646C66.8566 32.3884 66.6429 32.2475 66.2721 31.9998L65.4607 32.6151L66.2286 33.0495L66.9852 32.4646ZM67.3257 31.1997L66.4291 31.8798C66.745 32.0912 67.0325 32.2779 67.1403 32.3446L68.1202 31.5864L67.4373 31.1158L67.3257 31.1997ZM68.3131 30.451L67.8024 30.8377L67.5924 30.9977L68.2734 31.4683L69.0735 30.8491L68.3131 30.451ZM76.3199 23.0307C76.7058 23.2231 77.1012 23.4136 77.2222 23.465L77.8294 23.004C77.6724 22.9373 77.3981 22.8116 76.9082 22.5811L76.3199 23.0307ZM75.0148 22.7487L75.883 23.1297L77.4473 21.9371L76.6169 21.5714L75.0148 22.7487ZM74.3452 21.8533L75.3515 22.2724L76.4202 21.4856L75.4347 21.0532C75.3118 21.1408 74.9202 21.4285 74.3452 21.8533ZM73.617 21.2837L74.3622 21.6095C74.5249 21.4914 74.6724 21.3828 74.7973 21.2894L75.2191 20.9808C75.2266 20.9751 75.2304 20.9713 75.238 20.9656L74.5116 20.6474L73.617 21.2837ZM72.9852 21.5047L73.5678 21.0913L72.7166 20.716L72.1832 21.0951C72.5274 21.2742 72.8736 21.4533 72.9852 21.5047ZM72.0602 22.1619L72.8112 21.6285C72.6693 21.5599 72.4291 21.4342 72.0148 21.2151L71.2733 21.7428L72.0602 22.1619ZM71.2941 22.7049L71.89 22.282L71.105 21.8628L70.4751 22.3144L71.3036 22.6839L71.2941 22.7049ZM70.3938 23.3431L71.1409 22.8135L70.2992 22.4382L69.605 22.9335L70.3938 23.3431ZM69.5691 23.9299L70.2254 23.4631L69.4367 23.0535L68.786 23.5165L69.5691 23.9299ZM68.6687 24.5681L69.3988 24.0499L68.6176 23.6365L67.8724 24.168L68.6687 24.5681ZM67.7419 25.2253L68.4985 24.69L67.7002 24.2899L66.9928 24.7948L67.7419 25.2253ZM66.8453 25.8616L67.5754 25.3434L66.8282 24.9129L66.1322 25.4082L66.8453 25.8616ZM65.9506 26.4979L66.6826 25.9778L65.9695 25.5244L65.1807 26.0864L65.9506 26.4979ZM65.0445 27.1399L65.7822 26.616L65.0105 26.2064L64.2974 26.7151L65.0445 27.1399ZM63.9872 27.8905L64.8781 27.258L64.1309 26.8332L63.3043 27.4238L63.9872 27.8905ZM63.8264 28.0048L63.1435 27.5381L62.3377 28.1115L63.0073 28.5859L63.8264 28.0048ZM63.52 29.5994C63.7867 29.4032 64.0817 29.186 64.4014 28.9498L63.5029 28.4621L62.7047 29.0279L63.52 29.5994ZM63.363 29.7156L62.5439 29.1422L61.2879 30.0338C61.6 30.2319 61.8951 30.4167 62.1732 30.5919C62.3132 30.4891 62.7425 30.1728 63.363 29.7156ZM64.3768 29.1974C63.363 29.9442 62.6139 30.4967 62.3415 30.6986C62.6404 30.8853 62.9184 31.0587 63.1738 31.2187L65.2204 29.7156C65.0407 29.5994 64.6549 29.3651 64.3768 29.1974ZM66.1908 29.0012L65.2999 28.5173C65.0332 28.7135 64.7797 28.9021 64.5376 29.0793C64.8081 29.2412 65.2185 29.4908 65.3793 29.5994L66.1908 29.0012ZM66.9304 29.9633L67.7664 29.3251L66.8528 28.7459L65.96 29.4013L66.9304 29.9633ZM67.6946 29.6127L66.9682 30.1652L67.7419 30.651L68.4569 30.11L67.6946 29.6127ZM68.6233 28.9021L67.8497 29.4927L68.6138 29.9899L69.4045 29.3917L68.6233 28.9021ZM69.5691 28.182L68.7803 28.7821L69.5634 29.2717L70.3881 28.645L69.5691 28.182ZM74.5098 24.4119L71.6138 26.6217L69.7299 28.0582L70.5489 28.523L75.3553 24.8805C75.2096 24.8062 74.958 24.6652 74.5098 24.4119ZM74.1995 23.3488L75.064 23.7546L75.7147 23.2593L74.8427 22.8744L74.1995 23.3488ZM73.6756 22.3448C73.6283 22.3791 73.581 22.4153 73.5337 22.4515L74.5343 22.8706L75.1756 22.4001L74.1693 21.981C74.0161 22.0953 73.8515 22.2172 73.6756 22.3448ZM71.9297 23.4003C72.134 23.2517 72.3326 23.105 72.5236 22.964L71.7443 22.6135L71.0993 23.0707L71.9297 23.4003ZM69.7317 26.6294L69.2418 26.9894C69.2418 26.9894 69.2418 26.9894 69.2418 26.9913L68.9581 27.199L69.7809 27.7877L70.5565 27.1952L69.7317 26.6294ZM70.5602 26.0216L70.2519 26.2484H70.25L69.8906 26.5132L70.7116 27.0771L71.3925 26.557C71.2525 26.4732 71.0066 26.3131 70.5602 26.0216ZM71.5155 25.3206L70.7191 25.9054C71.0218 26.1017 71.4171 26.3569 71.5495 26.437L72.3421 25.833L71.5155 25.3206ZM72.3345 24.7167L71.6762 25.2006L72.4991 25.713L73.1914 25.1853L72.3345 24.7167ZM73.2632 24.0365L72.4991 24.5966L73.3521 25.0615L74.1239 24.4728L73.2632 24.0365ZM69.134 26.8389C69.134 26.8408 69.134 26.8408 69.134 26.8408V26.8389ZM66.3894 27.7134L67.3257 28.1687L68.0199 27.6581L67.1063 27.1876C66.8623 27.3647 66.624 27.5419 66.3894 27.7134ZM67.2728 27.0637L68.1864 27.5362L69.0111 26.9304C68.8654 26.8504 68.612 26.696 68.1523 26.4141C67.8572 26.6332 67.5622 26.8504 67.2728 27.0637ZM68.315 26.296C68.6309 26.4884 69.0451 26.738 69.1775 26.8084L70.0136 26.1931C69.8604 26.1188 69.5899 25.9759 69.1019 25.7168C68.8389 25.9092 68.576 26.1036 68.315 26.296ZM69.2664 25.593C69.6069 25.774 70.0495 26.0064 70.1838 26.0693L70.8667 25.5663L69.9531 25.0882C69.7261 25.2558 69.4972 25.4254 69.2664 25.593ZM70.1176 24.9662L71.0331 25.4444L71.7708 24.9015L70.8723 24.4099C70.6245 24.5928 70.373 24.7795 70.1176 24.9662ZM71.0369 24.2899L71.9373 24.7814L72.6371 24.2652L71.6895 23.8098C71.4757 23.9661 71.2582 24.1261 71.0369 24.2899ZM71.8578 23.6841L72.8074 24.1413L73.477 23.6498L72.5142 23.2002C72.3023 23.3564 72.0829 23.5184 71.8578 23.6841ZM72.6844 23.0745L73.6472 23.5241L74.3603 23.0002L73.3597 22.5792C73.146 22.7354 72.9209 22.9011 72.6844 23.0745ZM74.8975 23.8822L74.0293 23.4726L73.4297 23.9127L74.2866 24.349L74.8975 23.8822ZM69.6258 27.9039L68.8011 27.3133L67.9215 27.961L68.8862 28.4697L69.6258 27.9039ZM68.7236 28.5935L67.7551 28.083L67.0117 28.6278L67.9234 29.205L68.7236 28.5935ZM67.1574 28.2925L66.2211 27.8391C65.9619 28.0296 65.7085 28.2163 65.4644 28.3973L66.3554 28.8812L67.1574 28.2925ZM63.6713 28.342L64.566 28.8278C64.8232 28.6392 65.0937 28.4392 65.3755 28.2315L64.5319 27.7305L63.6713 28.342ZM64.6984 27.6124L65.5382 28.1134C65.7803 27.9324 66.0319 27.7477 66.2892 27.5571L65.4777 27.0599L64.6984 27.6124ZM65.6423 26.9437L66.4499 27.439C66.7034 27.2523 66.9625 27.0618 67.2236 26.8694L66.3894 26.4122L65.6423 26.9437ZM66.5578 26.2922L67.3881 26.7475C67.6643 26.5436 67.9461 26.3379 68.2261 26.1302L67.373 25.7149L66.5578 26.2922ZM67.547 25.5911L68.3944 26.0064C68.5117 25.9207 68.6271 25.8349 68.7444 25.7492C68.8938 25.6387 69.0413 25.5301 69.1908 25.4196L68.3831 24.9986L67.547 25.5911ZM68.5533 24.8786L69.3572 25.2977C69.5785 25.1339 69.7998 24.97 70.0193 24.8081L69.2135 24.408L68.5533 24.8786ZM69.3856 24.2861L70.1876 24.6843C70.4354 24.5033 70.6813 24.3223 70.9215 24.1451L70.1346 23.7546L69.3856 24.2861ZM70.3068 23.6327L71.0899 24.0213C71.315 23.8537 71.5382 23.6898 71.7538 23.5298L70.9196 23.1983L70.3068 23.6327ZM71.9184 22.4877L72.6939 22.8383C72.9038 22.6839 73.1062 22.5353 73.2973 22.3944C73.3408 22.362 73.3824 22.3315 73.4259 22.2991C73.2821 22.2439 73.0419 22.1467 72.6334 21.981L71.9184 22.4877ZM72.813 21.8533C73.1157 21.9752 73.4864 22.1238 73.6037 22.1677C73.8156 22.0133 74.0123 21.8686 74.1901 21.7371L73.441 21.4094L72.813 21.8533ZM75.4593 23.686L76.3313 24.1394L77.052 23.5927C76.8988 23.5241 76.6302 23.3945 76.1554 23.1564L75.4593 23.686ZM76.1686 24.2633L75.2966 23.8098L74.6705 24.2899C74.9845 24.4652 75.3893 24.69 75.5198 24.7548L76.1686 24.2633ZM78.0734 23.0516L77.2941 23.6422L75.586 24.9357L68.4758 30.3271L69.414 30.8206L67.2047 32.5275C67.2047 32.5275 67.2047 32.5275 67.2047 32.5294L66.2438 33.2705L65.2469 32.7066C65.1656 32.6723 64.9991 32.5694 64.6 32.3237L64.4827 32.2532L66.6013 30.6529L67.2614 31.0149L67.5849 30.771L66.8112 30.2852L64.3447 32.1675L64.2917 32.1351C63.4519 31.6131 62.0748 30.7501 60.1984 29.567L60.0811 29.4927L73.4373 19.973L78.9454 22.3906L78.0734 23.0516ZM56.4948 33.3486L57.4103 32.7066C57.0055 32.4418 56.7029 32.2437 56.5875 32.1675C56.2281 32.4189 55.9084 32.6418 55.6739 32.8057L56.4948 33.3486ZM61.5055 35.3794C61.3806 35.3051 61.1745 35.1718 60.817 34.9394C60.4613 34.7088 60.0206 34.4212 59.5572 34.1164C59.247 34.3488 58.9443 34.5755 58.6644 34.785L60.5994 36.0672L61.5055 35.3794ZM63.7923 32.4875L62.0483 33.8801L62.8182 34.385L64.6265 33.0133L63.7923 32.4875ZM57.9721 31.1978L58.7911 31.7369L60.5919 30.4719L59.7558 29.9461C59.4607 30.1538 58.7457 30.6548 57.9721 31.1978ZM58.6285 31.8512L57.8094 31.3121C57.4519 31.5616 57.0887 31.8169 56.7521 32.0531C56.9828 32.2036 57.2628 32.3884 57.573 32.5923L58.6285 31.8512ZM58.5036 33.2057L59.5894 32.4837L58.7949 31.9598L57.7394 32.7028C57.9834 32.8628 58.2407 33.0324 58.5036 33.2057ZM59.0692 33.7982C58.5414 33.4515 58.0118 33.1029 57.5768 32.8171L56.6613 33.4591L58.5017 34.6784C58.653 34.5641 58.9822 34.3164 59.3926 34.0097C59.2848 33.9392 59.177 33.8687 59.0692 33.7982ZM60.5711 33.1295L59.7577 32.5942L58.672 33.3162C58.9651 33.5086 59.2621 33.703 59.5496 33.8916C59.8655 33.6553 60.2192 33.3924 60.5711 33.1295ZM60.8945 33.12L61.8857 33.7734L63.6259 32.3827L62.7047 31.8036C62.5193 31.9217 61.7779 32.4646 60.8945 33.12ZM61.6341 31.1273L60.7602 30.5786L58.9576 31.8455L59.7577 32.3732L61.6341 31.1273ZM59.926 32.4837L60.7299 33.0114C61.496 32.4418 62.2318 31.9026 62.5345 31.695L61.8043 31.2359L59.926 32.4837ZM60.7526 34.6765L61.7325 33.8935L60.7356 33.2381C60.4046 33.4839 60.0566 33.743 59.7142 33.9982C60.0925 34.2459 60.4481 34.4783 60.7526 34.6765ZM62.6612 34.505L61.8951 34.0001L60.9153 34.7831C61.2861 35.0232 61.5584 35.1984 61.6625 35.2613L62.6612 34.505ZM59.701 29.7575L59.7501 29.7232L64.9518 33L61.7249 35.4461L60.6581 36.2539L60.607 36.2939L55.3448 32.8095L55.4564 32.7314C56.3681 32.0989 59.1524 30.1443 59.701 29.7575ZM57.974 29.7461L58.4601 30.0661L59.1638 29.5727L58.6757 29.266L57.974 29.7461ZM55.097 32.4227L56.0484 31.756L55.5112 31.4245L54.5636 32.0703L55.097 32.4227ZM56.7483 30.5805L55.6796 31.3102L56.213 31.6397L57.2249 30.9311L56.7483 30.5805ZM57.3857 30.8187L58.2955 30.1804L57.8075 29.8585L56.9109 30.47L57.3857 30.8187ZM55.0989 32.6475L54.2325 32.0741L58.672 29.045L59.4986 29.5651L55.0989 32.6475ZM62.3529 26.757L62.8352 27.0313L63.5048 26.5684L63.0471 26.2845L62.3529 26.757ZM59.8239 29.1117L60.5862 28.584L60.0944 28.2982L59.3453 28.8088L59.8239 29.1117ZM61.1782 27.5591L60.2646 28.182L60.7545 28.4678L61.6568 27.8448L61.1782 27.5591ZM61.8251 27.7286L62.665 27.1476L62.1826 26.8732L61.3466 27.4428L61.8251 27.7286ZM59.8277 29.3327L59.0087 28.8145L63.0433 26.0636L63.8434 26.5608L59.8277 29.3327ZM66.7393 23.7641L67.1952 24.0194L67.7627 23.627L67.3484 23.3488L66.7393 23.7641ZM64.3201 26.0064L65.1826 25.4101L64.7362 25.132L63.8321 25.7473L64.3201 26.0064ZM65.7387 24.448L64.9027 25.0177L65.3472 25.2958L66.2078 24.7014L65.7387 24.448ZM66.3781 24.5833L67.025 24.1375L66.5691 23.8803L65.9108 24.3299L66.3781 24.5833ZM64.3314 26.2217L63.4746 25.7683L67.2973 23.1602L67.3484 23.1259L68.0918 23.6251L64.3314 26.2217ZM72.5634 19.792L71.924 20.2283C72.168 20.3369 72.3061 20.3978 72.3818 20.4378L73.023 19.994L72.5634 19.792ZM69.7034 21.7428L69.0584 22.1829L69.5407 22.4001L70.1195 22L69.7034 21.7428ZM70.4089 21.2608L69.8717 21.6285L70.286 21.8857L70.8591 21.4894L70.4089 21.2608ZM71.6725 20.9294L72.2078 20.5579C72.081 20.5007 71.8919 20.4169 71.7424 20.3502L71.2242 20.7065L71.6725 20.9294ZM71.0483 20.8265L70.5829 21.1427L71.0312 21.3694L71.4965 21.0494L71.0483 20.8265ZM68.5458 23.0878L69.361 22.5239L68.8787 22.3048L68.0804 22.8497C68.3736 23.0059 68.4947 23.065 68.5458 23.0878ZM68.5647 23.2859C68.5079 23.2859 68.3755 23.2174 67.8572 22.943L67.721 22.8706L72.5009 19.6091L72.5426 19.5806L73.4032 19.9578L68.6101 23.2688C68.5949 23.2783 68.5836 23.2859 68.5647 23.2859ZM79.3521 28.1077C79.3445 28.0563 79.3161 28.0144 79.2688 27.9896L78.7714 27.7305L77.2695 28.9536L78.151 29.3174L79.3029 28.2449C79.3407 28.2087 79.3596 28.1592 79.3521 28.1077ZM76.1232 26.3531C76.1005 26.3417 76.0759 26.336 76.0532 26.336C76.0192 26.336 75.9851 26.3474 75.9568 26.3684L72.9946 28.7173C72.953 28.7497 72.9322 28.8012 72.936 28.8545C72.9417 28.9079 72.9719 28.9536 73.0192 28.9783L75.4082 30.23L78.5917 27.6372L76.1232 26.3531ZM76.0949 30.59C76.3578 30.7291 76.6793 30.6853 76.8969 30.4815L78.0015 29.4565L77.1049 29.0869L75.586 30.3252L76.0949 30.59ZM77.0217 30.6186C76.8534 30.7748 76.6377 30.8568 76.4183 30.8568C76.2783 30.8568 76.1384 30.8225 76.0116 30.7558L72.9341 29.1441C72.832 29.0907 72.7639 28.9879 72.7544 28.8717C72.7431 28.7554 72.7904 28.643 72.8811 28.5707L75.8433 26.2236C75.9473 26.1398 76.0892 26.1264 76.2065 26.1874L79.354 27.8239C79.4523 27.8753 79.5185 27.9725 79.5337 28.083C79.5488 28.1934 79.5091 28.3058 79.4277 28.3801L77.0217 30.6186ZM44.336 12.4498L50.9886 31.3597L64.2425 40.6794C65.5723 41.5995 67.3522 41.4948 68.5703 40.4241L84.4592 26.4427C84.673 26.2541 84.7883 25.9912 84.7827 25.7035L84.7808 25.5568C84.724 25.6406 84.6578 25.7206 84.5784 25.7892L68.6895 39.7706C67.9915 40.386 67.1195 40.6965 66.2419 40.6965C65.5098 40.6965 64.7759 40.4793 64.1385 40.0393L51.121 31.0358L51.0718 31.0663L51.0415 30.9806L50.9677 30.9311L51.015 30.9006L44.6462 12.7013C44.092 11.1144 44.8562 9.35787 46.3865 8.70252L65.9562 0.322047C66.0887 0.266799 66.2248 0.228698 66.3629 0.207742C66.0887 0.160114 65.8068 0.192501 65.5439 0.304901L45.976 8.68537C44.5346 9.30262 43.814 10.9562 44.336 12.4498ZM84.7713 24.7852C84.7221 24.4595 84.5141 24.1871 84.2152 24.0556L71.0483 18.268L67.6719 20.434C67.7097 20.5598 67.6719 20.655 67.67 20.6607L67.6586 20.6874L66.083 21.7447C66.0584 21.76 66.0319 21.7676 66.0054 21.7676C65.9846 21.7676 65.9638 21.7638 65.9449 21.7543C65.9014 21.7314 65.8711 21.6857 65.8673 21.6361C65.8673 21.6209 65.8636 21.6076 65.8617 21.5961L57.4444 26.9951C57.5238 27.1514 57.4727 27.279 57.4689 27.2866L57.4576 27.3133L55.8801 28.3706C55.8574 28.3859 55.8309 28.3954 55.8044 28.3954C55.7836 28.3954 55.7628 28.3897 55.7439 28.3801C55.7004 28.3573 55.6701 28.3135 55.6663 28.262C55.6644 28.2201 55.655 28.1839 55.6417 28.1534L51.3025 30.9368L64.2425 39.8869C65.5742 40.807 67.3522 40.7022 68.5703 39.6316L84.4592 25.6483C84.7032 25.433 84.8205 25.1091 84.7713 24.7852ZM57.102 26.9018C57.085 26.8904 57.0604 26.8904 57.0415 26.9037L55.6379 27.8582C55.7174 27.9191 55.8082 28.0182 55.8403 28.1763L57.3044 27.1933C57.3101 27.1456 57.3006 27.0256 57.102 26.9018ZM67.303 20.274C67.286 20.2626 67.2614 20.2645 67.2425 20.2759L65.839 21.2323C65.9165 21.2913 66.0092 21.3923 66.0414 21.5485L67.5054 20.5674C67.5111 20.5179 67.4997 20.3978 67.303 20.274ZM68.0521 1.60798C67.9726 1.15838 67.7021 0.775457 67.3049 0.558278C67.2746 0.541132 67.2444 0.525891 67.2141 0.512556L67.059 0.449688C66.7242 0.339193 66.3591 0.352529 66.0281 0.493505L46.4583 8.87398C45.017 9.49122 44.2982 11.1448 44.8203 12.6384L51.1683 30.7844L55.5169 27.9991C55.5074 27.9934 55.4961 27.9858 55.4866 27.9801C55.445 27.9572 55.4185 27.9134 55.4166 27.8639C55.4147 27.8162 55.4374 27.7705 55.4791 27.7419L56.9393 26.7494C57.0188 26.696 57.1209 26.6922 57.1985 26.7437C57.2495 26.7742 57.293 26.8084 57.3271 26.8408L65.7803 21.4285C65.7501 21.3961 65.7179 21.3713 65.6876 21.3542C65.646 21.3294 65.6196 21.2856 65.6177 21.238C65.6158 21.1884 65.6385 21.1427 65.6801 21.1161L67.1403 20.1216C67.2198 20.0683 67.32 20.0664 67.3995 20.1159C67.4751 20.1635 67.5319 20.213 67.5735 20.2607L70.9234 18.1098L68.0521 1.60798ZM45.9041 8.51391L65.472 0.133444C65.8787 -0.0399192 66.3251 -0.043729 66.7337 0.120108L67.1195 0.27442C67.1763 0.293471 67.2292 0.314427 67.2841 0.339193C67.3219 0.356339 67.3579 0.37539 67.3919 0.39444C67.8383 0.640197 68.1447 1.07075 68.2318 1.5775L71.1069 18.0908L84.289 23.8841C84.6446 24.0423 84.8943 24.368 84.9529 24.7567C84.968 24.8615 84.9699 24.9662 84.9567 25.0691L84.9661 25.6997C84.9737 26.0388 84.8318 26.3608 84.5784 26.5836L68.6895 40.5651C67.9915 41.1785 67.1195 41.4909 66.2419 41.4909C65.5098 41.4909 64.7759 41.2738 64.1385 40.8318L50.8353 31.4778L44.1639 12.5108C43.6097 10.9258 44.3739 9.16926 45.9041 8.51391ZM69.9739 16.4486L67.4184 2.49194C67.4127 2.46527 67.4071 2.43669 67.3995 2.41002C67.3957 2.40049 67.39 2.38906 67.3862 2.37763C67.3825 2.36239 67.3768 2.34715 67.3711 2.33382C67.3654 2.31858 67.3579 2.30524 67.3503 2.29191C67.3446 2.28238 67.3408 2.27095 67.3333 2.25952C67.3257 2.24618 67.3163 2.23285 67.3068 2.21761C67.3011 2.20999 67.2973 2.20046 67.2898 2.19094C67.2803 2.1776 67.269 2.16617 67.2595 2.15283C67.2519 2.14521 67.2463 2.13569 67.2387 2.12807C67.2274 2.11664 67.216 2.10711 67.2047 2.09568C67.1971 2.08806 67.1876 2.08044 67.1801 2.07282C67.1706 2.06329 67.1593 2.05567 67.1479 2.04615C67.1366 2.03853 67.1252 2.029 67.1139 2.02138C67.1063 2.01567 67.0968 2.01186 67.0893 2.00614C67.0741 1.99662 67.059 1.98709 67.042 1.97757C67.042 1.97757 67.042 1.97757 67.0401 1.97757C67.1025 2.07663 67.146 2.18522 67.1668 2.30143L69.7223 16.2581C69.7904 16.6277 69.6296 16.9973 69.3156 17.1992L51.9173 28.3039C51.8549 28.3439 51.7887 28.3763 51.7187 28.3992C51.7206 28.3992 51.7206 28.3992 51.7206 28.3992C51.7546 28.4068 51.7887 28.4106 51.8208 28.4125C51.8341 28.4144 51.8473 28.4144 51.8606 28.4144C51.8719 28.4144 51.8814 28.4144 51.8908 28.4144C51.9059 28.4144 51.923 28.4125 51.9381 28.4125C51.9476 28.4106 51.957 28.4087 51.9646 28.4087C51.9816 28.4068 51.9986 28.403 52.0138 28.3992C52.0232 28.3973 52.0308 28.3954 52.0402 28.3935C52.0573 28.3897 52.0724 28.384 52.0894 28.3801C52.097 28.3763 52.1046 28.3744 52.114 28.3706C52.131 28.3649 52.1481 28.3573 52.1632 28.3497C52.1708 28.3478 52.1783 28.3439 52.184 28.3401C52.2067 28.3287 52.2294 28.3173 52.2521 28.302L69.6485 17.1973C69.9001 17.0373 70.0268 16.7439 69.9739 16.4486ZM66.4197 1.95852L47.1204 10.6C46.2654 10.9848 45.8455 11.9507 46.1462 12.848L51.1853 27.9191C51.2382 28.0791 51.3423 28.2106 51.4785 28.2982C51.5012 28.2735 51.5314 28.2525 51.5674 28.2468C51.6563 28.2296 51.7414 28.1973 51.8208 28.1458L69.2172 17.0411C69.4688 16.881 69.5956 16.5877 69.5407 16.2924L66.9871 2.33572C66.9663 2.22142 66.919 2.11664 66.849 2.02519C66.8226 1.989 66.8131 1.94518 66.8188 1.90327C66.6845 1.88422 66.5464 1.90136 66.4197 1.95852ZM52.3505 28.4602C52.2029 28.5535 52.0384 28.6011 51.8719 28.6011H51.87C51.7679 28.6011 51.6657 28.584 51.5655 28.5478C51.5579 28.5459 51.5503 28.5421 51.5428 28.5383C51.5409 28.5383 51.5409 28.5383 51.539 28.5364C51.539 28.5364 51.539 28.5364 51.5371 28.5364C51.2893 28.4373 51.0983 28.2373 51.0131 27.9801L45.9722 12.9089C45.6412 11.9183 46.1027 10.8534 47.0466 10.4304L66.3459 1.78896C66.5994 1.67466 66.8869 1.68418 67.1328 1.81563C67.1347 1.81754 67.1366 1.81754 67.1385 1.81944C67.146 1.82325 67.1517 1.82706 67.1593 1.83278C67.1839 1.84612 67.2065 1.86136 67.2292 1.8766C67.2425 1.88612 67.2538 1.89565 67.2652 1.90327C67.2822 1.9166 67.2992 1.92994 67.3144 1.94518C67.3257 1.95661 67.3371 1.96804 67.3484 1.97947C67.3635 1.99281 67.3768 2.00805 67.39 2.02329C67.4014 2.03472 67.4108 2.04805 67.4222 2.06139C67.4335 2.07663 67.4449 2.09187 67.4562 2.10902C67.4657 2.12235 67.4733 2.13569 67.4827 2.15093C67.4941 2.16807 67.5035 2.18713 67.513 2.20618C67.5187 2.21951 67.5262 2.23285 67.5338 2.24618C67.5432 2.26904 67.5508 2.29 67.5584 2.31286C67.5622 2.3262 67.5678 2.33763 67.5716 2.34906C67.583 2.38525 67.5924 2.42145 67.6 2.45765L70.1536 16.4143C70.2217 16.7839 70.0628 17.1535 69.7469 17.3554L52.3505 28.4602Z" fill="#BC6FF1"/>
</g>
<defs>
<clipPath id="clip0_15_200">
<rect width="128" height="60" fill="white"/>
</clipPath>
</defs>
</svg>
